<svg width="265" height="280" viewBox="0 0 265 280" fill="none" xmlns="http://www.w3.org/2000/svg">
<path d="M264.095 61.1849C264.422 62.1247 264.564 61.3227 264.41 59.404C264.257 57.4853 263.989 56.7162 263.815 57.696C263.641 58.676 263.767 60.2452 264.095 61.1849Z" fill="black"/>
<path fill-rule="evenodd" clip-rule="evenodd" d="M261.186 43.611C256.98 31.4714 248.422 22.344 233.865 14.468C228.908 11.7876 222.623 7.72151 219.899 5.43455L220.939 13.3211C221.191 13.8054 224.609 15.931 228.534 18.0444C245.238 27.0388 250.259 32.567 255.147 47.349C257.757 55.2469 258.105 62.6285 256.504 76.2577C252.421 111.034 237.415 139.765 214.715 156.271C205.748 162.791 199.602 164.302 193.856 161.4C187.019 157.947 184.72 150.702 186.12 137.015C187.532 123.191 186.063 114.544 181.13 107.632C179.015 104.669 174.423 99.8181 170.925 96.8515C167.428 93.8838 164.74 91.3245 164.952 91.1626L157.849 94.056L165.3 100.74C177.228 111.441 180.03 117.962 178.541 131.561C177.367 142.282 178.163 153.045 180.454 157.433C183.214 162.721 188.29 166.546 194.212 167.802C199.706 168.965 208.666 168.78 207.748 167.521C207.464 167.13 208.704 166.66 210.505 166.477C215.653 165.953 226.628 157.463 235.532 147.113C244.407 136.798 248.29 130.653 253.084 119.339C258.584 106.358 259.875 101.854 263.631 82.54C264.558 77.7809 262.682 47.9291 261.186 43.611ZM262.173 80.6503C262.283 82.0209 262.101 82.5998 261.77 81.9366C261.438 81.2734 261.349 80.152 261.571 79.4445C261.792 78.7371 262.063 79.2797 262.173 80.6503ZM260.885 85.8792C260.801 85.4969 260.82 85.0144 260.957 84.5724C261.211 83.7516 261.467 83.9692 261.607 85.1267C261.734 86.1737 261.546 86.7805 261.189 86.476C261.044 86.3523 260.941 86.1392 260.885 85.8792ZM260.254 93.7466C258.971 98.6596 258.508 97.09 259.693 91.8439C260.259 89.3376 260.809 88.0023 260.917 88.8774C261.024 89.7516 260.726 91.9435 260.254 93.7466ZM254.616 111.853C253.535 113.213 256.959 100.978 258.061 99.5387C258.512 98.9511 258.112 101.24 257.173 104.626C256.236 108.011 255.084 111.264 254.616 111.853ZM251.685 118.525C250.597 119.989 251.449 116.655 252.594 114.965C253.91 113.023 253.933 113.054 253.002 115.493C252.785 116.063 252.559 116.624 252.355 117.108C252.05 117.83 251.794 118.378 251.685 118.525ZM249.999 122.885C248.595 124.245 248.544 124.167 249.465 122.047C250.515 119.628 251.356 118.985 251.478 120.509C251.516 120.989 250.851 122.059 249.999 122.885ZM243.926 133.924C239.775 140.498 233.247 148.489 228.484 152.826C226.427 154.699 227.855 152.809 231.659 148.627C235.462 144.443 240.368 138.059 242.561 134.441C244.755 130.824 247.075 127.074 247.718 126.107C250.412 122.057 247.073 128.942 243.926 133.924ZM221.466 159.149C220.416 159.824 219.54 160.151 219.518 159.878C219.496 159.603 220.337 158.827 221.386 158.153C222.436 157.478 223.312 157.151 223.334 157.425C223.356 157.699 222.515 158.475 221.466 159.149ZM185.047 126.72C184.699 125.24 184.48 122.549 184.558 120.74C184.637 118.931 184.921 120.142 185.19 123.431C185.459 126.719 185.395 128.2 185.047 126.72ZM185.102 132.968C185.212 134.339 185.031 134.917 184.7 134.254C184.368 133.591 184.278 132.47 184.5 131.762C184.722 131.055 184.993 131.597 185.102 132.968ZM181.551 111.684C180.975 111.389 180.469 110.612 180.424 109.958C180.377 109.244 180.779 109.336 181.431 110.188C182.822 112.004 182.85 112.349 181.551 111.684ZM184.68 153.712C183.649 152.359 182.736 140.291 183.48 137.862C183.783 136.871 184.362 140.276 184.768 145.428C185.172 150.58 185.133 154.308 184.68 153.712Z" fill="black"/>
<path fill-rule="evenodd" clip-rule="evenodd" d="M246.15 53.3714C245.626 53.1028 244.616 53.8733 243.905 55.0833C242.443 57.5722 241.936 57.1572 240.495 52.2899C239.203 47.9211 236.828 44.0406 232.741 39.6183C229.588 36.2058 227.598 35.258 227.757 37.2429C227.784 37.5748 228.374 38.6444 229.25 40.0017C229.8 40.8531 230.462 41.817 231.169 42.7832C234.608 47.4846 238.352 56.8103 238.739 61.6337C238.904 63.7043 237.334 66.3066 232.356 72.2169L225.752 80.0551L224.311 70.1384C222.559 58.0777 221.129 52.8372 219.624 52.9577C218.831 53.0222 218.815 57.1793 219.57 66.756C220.166 74.295 220.424 81.6632 220.143 83.1317C219.466 86.6795 206.336 95.4006 206.085 92.4689C205.884 90.1181 200.711 81.0127 199.109 80.1916C196.739 78.9765 196.226 81.4138 197.926 85.8147C198.851 88.2114 200.031 91.7516 200.545 93.6815C201.451 97.0781 201.368 97.2268 197.881 98.4092C192.949 100.081 192.586 102.273 197.303 101.895C200.292 101.656 200.88 101.922 200.591 103.388C200.398 104.369 200.072 106.587 199.867 108.317C199.644 110.202 198.555 112.068 197.155 112.968C194.352 114.769 194.243 115.929 196.855 116.156C198.664 116.313 198.704 116.547 197.572 120.182C196.776 122.735 195.732 124.091 194.483 124.191C193.445 124.274 192.632 124.791 192.676 125.339C192.72 125.887 193.244 126.297 193.84 126.249C194.553 126.192 194.803 127.547 194.57 130.204C194.246 133.898 194.403 134.23 196.403 134.07C197.93 133.947 198.384 133.46 197.903 132.456C197.525 131.666 197.625 131.094 198.125 131.185C198.38 131.231 198.757 131.041 199.157 130.699C199.542 130.368 199.949 129.895 200.288 129.357C201.282 127.773 202.099 127.501 204.256 128.036L206.972 128.709L204.354 133.433C201.307 138.931 201.265 139.273 203.546 139.945C205.389 140.488 207.017 138.448 205.926 136.961C205.56 136.464 205.816 136.343 206.499 136.694C207.216 137.061 208.472 136.286 209.484 134.854C211.672 131.757 211.695 130.14 209.523 132.144C208.036 133.515 208 133.481 209.135 131.772C209.819 130.738 210.639 130.112 210.954 130.381C211.271 130.65 212.492 129.809 213.668 128.513C218.289 123.418 216.749 127.749 210.321 137.923C206.607 143.802 203.603 149.046 203.645 149.575C203.794 151.434 208.379 150.141 210.342 147.686C212.44 145.06 212.916 143.199 211.159 144.489C210.584 144.911 210.79 144.019 211.617 142.505C213.289 139.446 214.065 138.885 213.373 141.238C212.703 143.511 214.064 143.012 215.998 140.276C218.14 137.245 218.13 135.665 215.982 137.646C214.502 139.011 214.464 138.979 215.567 137.311C216.239 136.298 217.177 135.669 217.653 135.913C218.626 136.411 222.313 132.144 222.194 130.657C222.152 130.127 221.176 130.628 220.026 131.772L217.936 133.85L219.636 131.481C220.571 130.177 221.713 129.304 222.173 129.541C222.634 129.777 224.084 128.303 225.396 126.265C226.707 124.226 229.229 121.496 231 120.194C232.772 118.893 233.938 117.444 233.593 116.973C233.247 116.502 233.682 116.329 234.559 116.587C237.044 117.32 236.264 114.306 233.545 112.668C232.17 111.841 231.81 111.29 232.688 111.36C233.704 111.442 235.715 107.698 238.8 99.9856C241.328 93.663 244.526 87.092 245.907 85.3825C248.999 81.5522 248.998 80.3267 245.905 81.1788C243.752 81.7715 243.6 81.6034 244.255 79.3565C244.651 77.9953 244.753 74.1066 244.483 70.715C244.184 66.9877 244.604 62.4367 245.545 59.2048C246.409 56.2417 246.677 53.6417 246.15 53.3714ZM237.795 82.367C236.757 87.7296 236.23 88.537 231.411 92.143C228.522 94.3043 225.841 96.2304 225.454 96.4221C224.767 96.7632 225.242 88.7916 225.943 88.2319C226.139 88.0752 229.099 84.8502 232.52 81.0651C235.94 77.28 238.782 74.7091 238.834 75.3525C238.885 75.996 238.418 79.1518 237.795 82.367ZM224.959 113.224C222.417 117.836 221.368 118.991 219.564 119.158C218.79 119.231 219.078 117.349 220.382 113.841C221.493 110.857 222.385 107.963 222.367 107.413C222.335 106.46 229.859 100.292 231.183 100.186C231.807 100.136 229.443 105.089 224.959 113.224ZM217.548 99.2711C217.129 100.766 214.852 103.145 212.088 104.975L207.348 108.112L206.997 103.734C206.791 101.162 207.144 99.1077 207.853 98.7561L208.681 98.344C216.581 94.4158 218.682 93.3718 219.021 93.7825C219.11 93.89 219.078 94.0984 218.997 94.3801C218.956 94.5255 218.902 94.6905 218.845 94.8714C218.527 95.8804 217.944 97.86 217.548 99.2711ZM212.196 117.005C210.455 121.383 209.879 121.956 206.967 122.189C204.928 122.352 203.423 121.886 202.976 120.951C202.582 120.126 202.686 119.671 203.209 119.938C203.731 120.206 204.54 118.864 205.004 116.955C205.621 114.422 206.568 113.279 208.508 112.722C209.971 112.303 211.987 111.566 212.989 111.084C213.997 110.597 214.665 110.625 214.481 111.145C214.345 111.532 213.733 113.111 212.981 115.019C212.731 115.655 212.465 116.328 212.196 117.005Z" fill="black"/>
<path fill-rule="evenodd" clip-rule="evenodd" d="M157.589 70.7417C159.006 57.3613 193.625 16.2652 201.52 18.5908C203.912 19.2967 203.814 20.9308 200.96 27.9573C195.393 41.668 175.825 65.8204 164.928 72.4309C158.545 76.3022 157.037 75.9547 157.589 70.7417ZM193.145 38.0233C195.479 34.2498 198.293 28.9605 199.398 26.27C200.502 23.5785 201.388 21.1388 201.364 20.8458C201.136 18.0004 191.124 25.8871 181.799 36.2572C171.586 47.6143 158.957 67.5569 159.296 71.7924C159.753 77.4987 183.19 54.1172 193.145 38.0233Z" fill="black"/>
<path fill-rule="evenodd" clip-rule="evenodd" d="M12.4713 262.76C13.4082 263.037 14.8757 264.376 15.7342 265.737C17.6498 268.776 17.1736 270.81 14.4942 271.024C12.356 271.195 8.47559 268.024 8.31114 265.97C8.15948 264.076 10.5837 262.204 12.4713 262.76ZM9.78894 265.345C9.22048 266.453 13.0628 270.136 14.6536 270.008C16.0423 269.897 15.6355 266.572 14.0713 265.24C12.5144 263.913 10.4971 263.963 9.78894 265.345Z" fill="black"/>
<path fill-rule="evenodd" clip-rule="evenodd" d="M203.264 1.45158C208.967 0.199537 212.43 0.859779 215.635 3.80486C217.759 5.75968 218.335 7.26839 218.702 11.8562C220.436 33.5096 190.424 76.5175 164.145 90.0408C152.02 96.2803 137.737 112.158 131.654 126.163C128.789 132.758 122.579 142.148 117.341 147.805C105.491 160.605 99.0407 169.038 96.4035 175.181C92.1563 185.072 84.9059 193.965 72.1439 204.937C54.6737 219.956 44.7309 234.202 25.7565 271.392C22.8057 277.176 19.92 279.125 15.0676 278.611C10.5479 278.131 4.11161 272.623 2.36858 267.741C0.251524 261.81 1.75481 257.707 8.05279 252.232C13.9965 247.065 28.9373 229.775 42.6426 212.203C44.6571 209.621 46.8694 206.788 48.9633 204.111C52.0643 200.144 54.9051 196.517 56.4574 194.545C59.059 191.239 61.9722 186.591 62.9326 184.214C63.894 181.837 66.522 177.698 68.7742 175.016C71.0262 172.332 72.8326 169.684 72.7881 169.129C72.7437 168.574 76.3529 165.249 80.8082 161.742C89.5336 154.87 91.2168 152.676 96.1067 141.79C97.8563 137.894 101.074 132.338 103.256 129.446C105.438 126.553 107.631 123.254 108.129 122.114C108.627 120.972 111.505 118.056 114.524 115.632C121.635 109.924 127.383 102.319 132.839 91.4029C135.252 86.5758 138.037 82.1049 139.028 81.4681C140.044 80.8147 141.004 78.6579 141.229 76.5277C143.027 59.4841 162.81 29.2306 182.689 13.129C189.453 7.64977 198.551 2.48632 203.264 1.45158ZM160.815 89.2464C180.556 81.3586 209.641 45.6824 215.529 22.1344C222.59 -6.09924 196.546 -1.78824 169.151 29.8134C156.675 44.2046 147.65 59.6744 144.57 71.9506L142.884 78.6641L145.445 78.7853C146.853 78.8519 148.729 78.1374 149.613 77.1976C151.784 74.893 154.841 74.7884 157.127 76.9409C158.675 78.3991 158.966 79.7376 158.757 84.4441C158.504 90.1367 158.517 90.1651 160.815 89.2464ZM152.57 76.3839C149.754 76.6093 150.376 77.7743 154.473 79.9474C157.142 81.362 158.067 81.5054 157.986 80.4901C157.826 78.4945 154.805 76.2049 152.57 76.3839ZM150.25 97.1646C152.415 95.3914 154.729 92.6502 155.392 91.0707C157.09 87.0219 156.677 84.7635 153.817 82.4776C151.023 80.2452 145.598 80.2338 141.608 82.4519C140.137 83.2701 137.312 87.4121 134.639 92.6725C129.076 103.616 124.021 110.316 116.253 117.037C108.903 123.397 108.33 124.72 113.314 123.838C115.364 123.476 118.024 123.609 119.224 124.132C122.164 125.416 125.102 130.337 124.578 133.099C124.156 135.315 124.167 135.316 125.601 133.217C126.397 132.051 128.389 127.975 130.027 124.162C133.278 116.596 144.002 102.278 150.25 97.1646ZM115.077 126.536C115.863 126.473 118.004 128.176 119.835 130.319C123.051 134.084 123.155 134.125 122.947 131.528C122.673 128.096 118.243 124.276 114.85 124.548C113.374 124.666 112.554 125.164 112.951 125.703C113.333 126.224 114.29 126.599 115.077 126.536ZM94.3902 174.054C96.3952 169.288 100.184 164.047 108.878 154.011C119.596 141.638 120.624 140.103 120.365 136.867C119.977 132.013 115.518 127.504 111.43 127.831C106.575 128.22 103.315 131.971 97.6898 143.645C92.3027 154.824 90.8508 156.575 79.0705 166.113L74.3626 169.924L78.4934 169.593C81.9723 169.314 83.154 169.778 85.9984 172.539C88.1826 174.658 89.4597 176.878 89.6159 178.829C89.9443 182.93 91.1741 181.701 94.3902 174.054ZM86.6663 179.578C86.7276 180.343 87.2262 180.932 87.7744 180.888C88.3227 180.844 88.6954 180.701 88.6018 180.571C88.5092 180.442 88.1495 179.132 87.804 177.662C86.5872 172.487 78.8116 168.97 75.0146 171.878C73.9436 172.697 74.4134 172.902 76.9364 172.713C79.3744 172.528 81.1232 173.233 83.4155 175.324C85.1417 176.899 86.6052 178.814 86.6663 179.578ZM77.2246 197.601C79.6477 195.826 82.6739 192.751 83.9507 190.768C86.6469 186.578 86.6254 181.623 83.8985 178.162C77.6329 170.21 69.8143 173.184 64.6525 185.485C63.5099 188.204 61.4213 191.876 60.0109 193.645C58.9065 195.029 53.3439 202.065 46.5625 210.653L40.6968 218.084C31.486 229.757 20.6982 242.67 16.7245 246.781L9.49871 254.253L12.8375 255.066C16.9403 256.065 22.8022 261.07 24.078 264.661C24.9883 267.224 25.1902 267.013 29.2963 259.218C44.9284 229.539 59.9019 210.289 77.2246 197.601ZM10.0025 273.825C15.0948 277.737 18.4456 277.736 21.5283 273.825C24.2301 270.398 24.0932 266.842 21.0968 262.712C16.8961 256.917 8.47283 254.52 5.32015 258.221C1.63561 262.548 3.52801 268.854 10.0025 273.825Z" fill="black"/>
</svg>
